<?xml version="1.0" standalone="no"?>
<!DOCTYPE svg PUBLIC "-//W3C//DTD SVG 20010904//EN"
 "http://www.w3.org/TR/2001/REC-SVG-20010904/DTD/svg10.dtd">
<svg version="1.0" xmlns="http://www.w3.org/2000/svg"
 width="512.000000pt" height="512.000000pt" viewBox="0 0 512.000000 512.000000"
 preserveAspectRatio="xMidYMid meet">

<g transform="translate(0.000000,512.000000) scale(0.100000,-0.100000)"
fill="#DDDDDD" stroke="none">
<path d="M3656 4289 c-172 -26 -325 -165 -424 -385 -18 -39 -32 -76 -32 -82 0
-18 -8 -15 -49 18 -88 71 -231 68 -328 -6 l-33 -25 -34 34 c-53 53 -140 69
-261 46 -73 -13 -105 -29 -160 -80 l-42 -39 -26 20 c-59 47 -166 43 -275 -11
-77 -38 -115 -84 -145 -180 -5 -14 -11 -15 -47 -6 -51 14 -151 -9 -217 -51
-52 -32 -101 -101 -110 -155 -5 -33 -12 -41 -53 -62 -91 -46 -141 -136 -158
-281 -4 -43 -8 -232 -7 -419 1 -395 -1 -386 109 -624 77 -166 93 -216 106
-341 13 -125 13 -421 -1 -610 -9 -133 -8 -154 6 -176 21 -33 78 -34 99 -2 29
46 46 547 25 767 -14 156 -37 235 -117 413 -100 220 -102 234 -102 621 0 178
5 349 10 378 18 95 80 192 80 125 0 -31 43 -243 71 -346 83 -308 174 -479 264
-496 41 -7 108 21 150 63 l31 30 49 -28 c40 -23 62 -29 110 -28 33 0 78 6 100
14 21 8 40 13 41 12 1 -1 9 -26 19 -56 38 -117 173 -272 278 -321 46 -21 73
-16 94 16 24 37 9 67 -51 107 -110 73 -197 193 -213 292 -6 39 -6 40 13 23 56
-49 175 -63 249 -29 45 20 92 70 107 114 8 23 14 26 32 20 11 -4 42 -8 69 -7
84 2 185 91 254 227 32 65 106 324 132 467 22 119 27 262 11 340 -7 38 -3 60
26 149 85 258 220 405 392 427 l52 7 0 -39 c-1 -54 -38 -140 -109 -247 -121
-186 -165 -416 -181 -947 -14 -480 -27 -560 -113 -724 -65 -123 -254 -323
-420 -445 -69 -50 -99 -94 -125 -182 -33 -107 -44 -250 -41 -495 l4 -226 29
-24 c41 -36 98 -14 98 37 0 13 -1 128 -2 254 -1 231 7 335 36 433 13 46 23 59
76 100 111 85 217 183 312 288 79 87 104 123 155 226 34 68 68 150 76 183 21
92 35 280 45 610 9 313 27 476 70 645 25 97 34 117 105 225 104 158 139 293
97 374 -35 69 -91 88 -206 70z m-990 -533 c16 -12 19 -25 16 -78 -10 -254 -12
-879 -2 -925 14 -66 -1 -152 -34 -189 -17 -21 -31 -26 -71 -26 -45 -1 -52 2
-86 40 -63 71 -68 107 -88 609 -11 266 -15 460 -10 478 11 40 46 73 96 90 51
19 154 19 179 1z m404 -14 c14 -10 38 -44 55 -77 27 -53 30 -70 33 -180 4
-105 0 -141 -22 -250 -67 -320 -149 -509 -236 -545 -40 -17 -57 -8 -80 42 -18
40 -20 69 -20 443 l0 400 29 60 c46 97 105 139 181 130 19 -3 46 -13 60 -23z
m-874 -57 c12 -8 30 -36 42 -62 18 -43 22 -90 36 -463 16 -389 25 -500 47
-542 14 -26 -60 -94 -122 -112 -66 -20 -112 -7 -144 42 -23 36 -24 48 -45 442
-15 282 -26 416 -36 443 -17 45 -18 74 -3 131 15 62 46 95 109 116 67 23 89
24 116 5z m-384 -235 c14 -10 31 -32 37 -48 7 -16 21 -201 34 -445 24 -456 25
-452 -32 -482 -34 -17 -36 -16 -78 70 -80 160 -183 576 -183 736 0 98 19 135
84 165 62 29 105 30 138 4z"/>
<path d="M1925 1748 c-40 -23 -47 -66 -16 -97 29 -29 221 -62 397 -68 145 -5
152 -5 173 16 12 12 21 34 21 51 0 48 -28 58 -160 58 -97 1 -259 21 -373 47
-12 3 -31 0 -42 -7z"/>
</g>
</svg>
