<svg xmlns="http://www.w3.org/2000/svg" viewBox="0 0 506.94 481.27"><defs><style>.cls-1{fill:#d4e8e7}.cls-2{fill:#f1f2f2}.cls-11,.cls-12,.cls-13,.cls-16,.cls-2,.cls-9{stroke:#231f20}.cls-11,.cls-12,.cls-2,.cls-9{stroke-linecap:round;stroke-linejoin:round}.cls-13,.cls-16,.cls-2,.cls-9{stroke-width:3px}.cls-3{fill:#d4eae9}.cls-4{fill:#e2eeee}.cls-5{fill:#fff}.cls-6{fill:#ad8e74}.cls-7{fill:#89705d}.cls-8{fill:#b7b7b7}.cls-11,.cls-12,.cls-16,.cls-9{fill:none}.cls-10{fill:#231f20}.cls-11{stroke-width:2px}.cls-12{stroke-width:4px}.cls-13{fill:#4c3118}.cls-13,.cls-16{stroke-miterlimit:10}.cls-14{fill:#b68767}.cls-15{fill:#2b1c11}</style></defs><title>Jar logo_v3</title><g id="Layer_1" data-name="Layer 1"><path d="M433.44,107.36l-355.1-1c0,.4,0,.8,0,1.2l-.14,332.51c0,25.81,17.85,46.72,39.91,46.71l275.26-.14c22.05,0,39.93-20.94,39.94-46.74Z" class="cls-1" transform="translate(-0.55 -21.6)"/><path d="M448.23,123.19,63.39,122.08c0,.4,0,.79,0,1.19L63.31,454.8c0,25.73,19.36,46.58,43.26,46.57l298.31-.06c23.9,0,43.28-20.87,43.29-46.59Z" class="cls-2" transform="translate(-0.55 -21.6)"/><path d="M437,100.92l-362.28-1c0,.4,0,.81,0,1.22L74.6,442.35c0,26.48,18.22,47.94,40.72,47.93l280.81-.14c22.5,0,40.75-21.49,40.76-48Z" class="cls-3" transform="translate(-0.55 -21.6)"/><path d="M355.18,109.41H97.78a20.13,20.13,0,0,0-20.07,20.07V465.35a20.13,20.13,0,0,0,20.07,20.07h257.4a20.13,20.13,0,0,0,20.07-20.07V129.48A20.13,20.13,0,0,0,355.18,109.41ZM333.35,448.26a20.13,20.13,0,0,1-20.07,20.07H139.68a20.13,20.13,0,0,1-20.07-20.07V182.43a20.13,20.13,0,0,1,20.07-20.07h173.6a20.13,20.13,0,0,1,20.07,20.07Z" class="cls-4" transform="translate(-0.55 -21.6)"/><ellipse cx="127.79" cy="189.21" class="cls-5" rx="61.35" ry="42.01" transform="translate(-97.28 209.09) rotate(-66.43)"/><path d="M53.24,66.31,2.05,161.64,136,135.39l-2.59,56.29,121.26-75.26,120.93,74.79L373.47,135l133,27.46L456,67l-14.39,9.75H67.85S57.16,72.14,53.24,66.31Z" class="cls-6" transform="translate(-0.55 -21.6)"/><path d="M53.76,64.31,1.93,161.86l133.48-27-2.6,56.29,121.26-75.25L375,190.66l-2.08-56.26,133,27.46L454.4,64l-13.31,12.2H67.29S57.69,70.13,53.76,64.31Z" class="cls-6" transform="translate(-0.55 -21.6)"/><path d="M132,191.66l121.89-84.81,121.41,84s0,0,0,0L254.22,116Z" class="cls-7" transform="translate(-0.55 -21.6)"/><polygon points="447.12 129.54 373.77 114.44 377.12 174.19 253.59 96.28 129.91 174.02 133.33 114.2 63.02 129.18 63.1 127.42 134.76 112.7 131.59 170.46 253.63 93.63 374.98 169.88 372.43 112.7 446.78 127.42 447.12 129.54" class="cls-8"/><g id="jar_line" data-name="jar line"><path d="M448.16,150.13v308a43.27,43.27,0,0,1-43.27,43.27H106.57A43.27,43.27,0,0,1,63.3,458.1v-308c0-.37,0-.74,0-1.11" class="cls-9" transform="translate(-0.55 -21.6)"/><rect width="21.27" height="125.44" x="173.51" y="191.03" class="cls-10" rx="6.36"/><polyline points="62.75 127.42 1.5 139.68 53.07 42.01" class="cls-9"/><polyline points="253.59 94.18 131.88 170.22 134.97 112.66 62.87 127.09" class="cls-11"/><polyline points="447.49 128.08 505.44 139.68 453.85 42.35" class="cls-9"/><polyline points="253.59 94.18 375.3 170.22 372.2 112.66 447.61 127.75" class="cls-11"/><rect width="21.27" height="125.44" x="315.18" y="191.03" class="cls-10" rx="6.36"/><path d="M121.07,344.37c0,68.52,71.28,124,159.38,124" class="cls-12" transform="translate(-0.55 -21.6)"/></g><rect width="405.77" height="54" x="50.71" y="1.5" class="cls-13" rx="27"/><path d="M453,38.3H55.65c0-8.23,7.2-11,14.7-15.19H437.83c6.49,2.78,13.65,9.07,15.2,15.2Z" class="cls-14" transform="translate(-0.55 -21.6)"/><path d="M437.59,77.1H70.65c-6.89-3.47-14-8.77-14.83-14.82H452.41C451.72,68.9,444.1,73.3,437.59,77.1Z" class="cls-15" transform="translate(-0.55 -21.6)"/><rect width="405.77" height="54" x="50.71" y="1.5" class="cls-16" rx="27"/></g></svg>