<svg xmlns="http://www.w3.org/2000/svg" xmlns:xlink="http://www.w3.org/1999/xlink" id="Layer_1" width="800" height="800" version="1.1" viewBox="0 0 512 512" xml:space="preserve"><path style="fill:#736056" d="M105.739,100.174H38.957c-9.217,0-16.696-7.473-16.696-16.696V50.087	C22.261,22.468,44.729,0,72.348,0s50.087,22.468,50.087,50.087v33.391C122.435,92.701,114.956,100.174,105.739,100.174z"/><path style="fill:#665247" d="M105.739,100.174c9.217,0,16.696-7.473,16.696-16.696V50.087C122.435,22.468,99.967,0,72.348,0	v100.174H105.739z"/><path style="fill:#736056" d="M22.261,356.174v139.13c0,9.223,7.479,16.696,16.696,16.696h66.783	c9.217,0,16.696-7.473,16.696-16.696v-139.13H22.261z"/><path style="fill:#665247" d="M72.348,512h33.391c9.217,0,16.696-7.473,16.696-16.696v-139.13H72.348V512z"/><path style="fill:#e4ebf0" d="M473.043,367.304H22.261V66.783h450.783c9.22,0,16.696,7.475,16.696,16.696v267.13	C489.739,359.829,482.264,367.304,473.043,367.304z"/><path style="fill:#cdd9e4" d="M473.043,66.783H256v300.522h217.043c9.22,0,16.696-7.475,16.696-16.696V83.478	C489.739,74.258,482.264,66.783,473.043,66.783z"/><path style="fill:#e6563a" d="M256,300.522c-46.032,0-83.478-37.446-83.478-83.478s37.446-83.478,83.478-83.478	s83.478,37.446,83.478,83.478S302.032,300.522,256,300.522z"/><path style="fill:#d9472b" d="M339.478,217.043c0-46.032-37.446-83.478-83.478-83.478v166.957	C302.032,300.522,339.478,263.076,339.478,217.043z"/></svg>