<svg xmlns="http://www.w3.org/2000/svg" enable-background="new 0 0 512 512" viewBox="0 0 512 512"><path fill="#80b4fb" fill-rule="evenodd" d="M446.565,478.5H316.928c-17.59,0-31.936-14.346-31.936-31.936V316.927c0-17.59,14.346-31.936,31.936-31.936 h129.637c17.589,0,31.936,14.346,31.936,31.936v129.637C478.5,464.154,464.154,478.5,446.565,478.5z" clip-rule="evenodd"/><path fill="#61a2f9" fill-rule="evenodd" d="M449.901,285.166c16.031,1.677,28.6,15.298,28.6,31.761v129.637c0,17.59-14.346,31.936-31.936,31.936 H316.928c-9.194,0-17.5-3.921-23.337-10.175c1.097,0.115,2.21,0.175,3.336,0.175h129.637c17.589,0,31.936-14.346,31.936-31.936 V306.927C458.5,298.532,455.23,290.877,449.901,285.166z" clip-rule="evenodd"/><path fill="#fc5692" fill-rule="evenodd" d="M65.436,478.5h129.637c17.589,0,31.936-14.346,31.936-31.936V316.927c0-17.59-14.346-31.936-31.936-31.936 H65.436c-17.589,0-31.936,14.346-31.936,31.936v129.637C33.5,464.154,47.846,478.5,65.436,478.5z" clip-rule="evenodd"/><path fill="#fb3580" fill-rule="evenodd" d="M198.409,285.166c16.031,1.677,28.6,15.298,28.6,31.761v129.637c0,17.59-14.346,31.936-31.936,31.936H65.436 c-9.194,0-17.5-3.921-23.337-10.175c1.097,0.115,2.21,0.175,3.336,0.175h129.637c17.589,0,31.936-14.346,31.936-31.936V306.927 C207.008,298.532,203.738,290.877,198.409,285.166z" clip-rule="evenodd"/><path fill="#fcdd2e" fill-rule="evenodd" d="M446.565,33.5H316.928c-17.59,0-31.936,14.346-31.936,31.936v129.637c0,17.59,14.346,31.936,31.936,31.936 h129.637c17.589,0,31.936-14.346,31.936-31.936V65.435C478.5,47.846,464.154,33.5,446.565,33.5z" clip-rule="evenodd"/><path fill="#fbd307" fill-rule="evenodd" d="M449.901,33.674c16.031,1.677,28.6,15.298,28.6,31.761v129.637c0,17.59-14.346,31.936-31.936,31.936 H316.928c-9.194,0-17.5-3.921-23.337-10.175c1.097,0.115,2.21,0.175,3.336,0.175h129.637c17.589,0,31.936-14.346,31.936-31.936 V55.435C458.5,47.04,455.23,39.385,449.901,33.674z" clip-rule="evenodd"/><path fill="#b9ea6a" fill-rule="evenodd" d="M65.436,33.5h129.637c17.589,0,31.936,14.346,31.936,31.936v129.637c0,17.59-14.346,31.936-31.936,31.936 H65.436c-17.589,0-31.936-14.346-31.936-31.936V65.435C33.5,47.846,47.846,33.5,65.436,33.5z" clip-rule="evenodd"/><path fill="#a1e42c" fill-rule="evenodd" d="M198.409,33.674c16.031,1.677,28.6,15.298,28.6,31.761v129.637c0,17.59-14.346,31.936-31.936,31.936H65.436 c-9.194,0-17.5-3.921-23.337-10.175c1.097,0.115,2.21,0.175,3.336,0.175h129.637c17.589,0,31.936-14.346,31.936-31.936V55.435 C207.008,47.04,203.738,39.385,198.409,33.674z" clip-rule="evenodd"/><path fill-rule="evenodd" d="M421.756,118.258h-80.016c-6.597,0-11.969,5.367-11.969,11.998c0,6.625,5.372,11.998,11.969,11.998h80.016 c6.597,0,12.017-5.372,12.017-11.998C433.773,123.626,428.354,118.258,421.756,118.258L421.756,118.258z M466.524,316.931 c0-10.994-8.953-19.938-19.98-19.938H316.954c-11.027,0-19.98,8.944-19.98,19.938v129.637c0,10.994,8.953,19.933,19.98,19.933 h129.589c11.027,0,19.98-8.939,19.98-19.933V316.931L466.524,316.931z M490.51,316.931v129.637 c0,24.226-19.698,43.933-43.966,43.933H316.954c-24.269,0-43.966-19.707-43.966-43.933V316.931 c0-24.226,19.698-43.938,43.966-43.938h129.589C470.812,272.993,490.51,292.705,490.51,316.931L490.51,316.931z M215.026,316.931 c0-10.994-8.954-19.938-19.933-19.938H65.457c-11.027,0-19.933,8.944-19.933,19.938v129.637c0,10.994,8.906,19.933,19.933,19.933 h129.637c10.98,0,19.933-8.939,19.933-19.933V316.931L215.026,316.931z M239.012,316.931v129.637 c0,24.226-19.697,43.933-43.919,43.933H65.457c-24.222,0-43.966-19.707-43.966-43.933V316.931 c0-24.226,19.745-43.938,43.966-43.938h129.637C219.315,272.993,239.012,292.705,239.012,316.931L239.012,316.931z M466.524,65.438 v129.637c0,10.994-8.953,19.938-19.98,19.938H316.954c-11.027,0-19.98-8.944-19.98-19.938V65.438 c0-10.994,8.953-19.938,19.98-19.938h129.589C457.571,45.5,466.524,54.444,466.524,65.438L466.524,65.438z M490.51,65.438v129.637 c0,24.226-19.698,43.938-43.966,43.938H316.954c-24.269,0-43.966-19.712-43.966-43.938V65.438 c0-24.226,19.698-43.938,43.966-43.938h129.589C470.812,21.5,490.51,41.212,490.51,65.438L490.51,65.438z M176.244,335.761 c4.713,4.689,4.713,12.285,0,16.969l-29.028,29.018l29.028,29.014c4.713,4.684,4.713,12.285,0,16.969 c-2.356,2.347-5.419,3.515-8.482,3.515c-3.063,0-6.126-1.169-8.482-3.515l-29.028-29.014l-29.028,29.014 c-4.665,4.689-12.252,4.689-16.965,0c-4.665-4.684-4.665-12.285,0-16.969l29.028-29.014L84.259,352.73 c-4.665-4.684-4.665-12.281,0-16.969c4.712-4.684,12.299-4.684,16.965,0l29.028,29.014l29.028-29.014 C163.945,331.077,171.531,331.077,176.244,335.761L176.244,335.761z M421.756,396.635c6.597,0,12.017,5.372,12.017,11.998 c0,6.63-5.419,12.002-12.017,12.002h-80.016c-6.597,0-11.969-5.372-11.969-12.002c0-6.625,5.372-11.998,11.969-11.998H421.756 L421.756,396.635z M421.756,342.863c6.597,0,12.017,5.372,12.017,11.998c0,6.63-5.419,12.002-12.017,12.002h-80.016 c-6.597,0-11.969-5.372-11.969-12.002c0-6.626,5.372-11.998,11.969-11.998H421.756L421.756,342.863z M215.026,65.438 c0-10.994-8.954-19.938-19.933-19.938H65.457c-11.027,0-19.933,8.944-19.933,19.938v129.637c0,10.994,8.906,19.938,19.933,19.938 h129.637c10.98,0,19.933-8.944,19.933-19.938V65.438L215.026,65.438z M239.012,65.438v129.637 c0,24.226-19.697,43.938-43.919,43.938H65.457c-24.222,0-43.966-19.712-43.966-43.938V65.438c0-24.226,19.745-43.938,43.966-43.938 h129.637C219.315,21.5,239.012,41.212,239.012,65.438L239.012,65.438z M182.275,130.256c0,6.625-5.372,11.998-12.016,11.998 h-27.991v28.001c0,6.63-5.372,12.003-12.017,12.003c-6.597,0-12.016-5.372-12.016-12.003v-28.001H90.244 c-6.597,0-11.969-5.372-11.969-11.998c0-6.63,5.372-11.998,11.969-11.998h27.991V90.258c0-6.631,5.419-12.002,12.016-12.002 c6.644,0,12.017,5.372,12.017,12.002v28.001h27.991C176.903,118.258,182.275,123.626,182.275,130.256z" clip-rule="evenodd"/></svg>