<svg xmlns="http://www.w3.org/2000/svg" xmlns:svgjs="http://svgjs.com/svgjs" xmlns:xlink="http://www.w3.org/1999/xlink" id="SvgjsSvg1001" width="288" height="288" version="1.1"><g id="SvgjsG1008" transform="matrix(1,0,0,1,0,0)"><svg xmlns="http://www.w3.org/2000/svg" width="288" height="288" viewBox="0 0 24 24"><path fill="#fff" d="M12.47 11.66L1.87.16A.5.5 0 0 0 1 .5v23a.5.5 0 0 0 .87.34l10.6-11.5A.5.5 0 0 0 12.47 11.66zM13.87 13.18a.52.52 0 0 0-.74 0l-8.28 9a.5.5 0 0 0 .62.77c3.2-1.85 7.18-4.19 10.75-6.31a.5.5 0 0 0 .11-.77zM22.5 11.12h0L18 8.45a.5.5 0 0 0-.62.09l-2.88 3.12a.5.5 0 0 0 0 .68l2.88 3.12a.5.5 0 0 0 .62.09l4.46-2.67a1 1 0 0 0 0-1.77zm-.26.43zM13.14 10.82a.5.5 0 0 0 .74 0l2.47-2.68a.5.5 0 0 0-.11-.77C12.65 5.25 8.67 2.92 5.48 1.06a.5.5 0 0 0-.62.77z" class="color303c42 svgShape" data-name="Google Play"/></svg></g></svg>