<svg xmlns="http://www.w3.org/2000/svg" width="800" height="800" class="icon" version="1.1" viewBox="0 0 1024 1024"><path fill="#2196F3" d="M729.6 505.6c-8.533333-19.2-85.333333-198.4-140.8-262.4-59.733333-64-128-93.866667-217.6-93.866667-23.466667 0-42.666667 19.2-42.666667 42.666667s19.2 42.666667 42.666667 42.666667c66.133333 0 108.8 19.2 151.466667 66.133333 40.533333 44.8 104.533333 185.6 125.866666 236.8 6.4 17.066667 23.466667 25.6 38.4 25.6 6.4 0 10.666667-2.133333 17.066667-4.266667 23.466667-6.4 34.133333-32 25.6-53.333333z"/><path fill="#3F51B5" d="M789.333333 469.333333h85.333334v384h-85.333334zM469.333333 601.6h85.333334V853.333333h-85.333334zM192 516.266667l-85.333333-106.666667V853.333333h85.333333z"/><path fill="#2196F3" d="M917.333333 390.4l-339.2 155.733333c-55.466667 25.6-130.133333 40.533333-194.133333 40.533334-104.533333 0-192-78.933333-192-174.933334 0-96 85.333333-174.933333 192-174.933333 23.466667 0 42.666667-19.2 42.666667-42.666667s-19.2-42.666667-42.666667-42.666666C230.4 149.333333 106.666667 266.666667 106.666667 409.6s123.733333 260.266667 277.333333 260.266667c76.8 0 164.266667-17.066667 230.4-46.933334L917.333333 484.266667v-93.866667z"/><path fill="#B71C1C" d="M710.72 381.717333l67.882667-31.082666 31.082666 67.882666-67.882666 31.082667z"/><path fill="#FFB74D" d="M665.6 352m-27.733333 0a27.733333 27.733333 0 1 0 55.466666 0 27.733333 27.733333 0 1 0-55.466666 0Z"/><path fill="#FFB74D" d="M580.266667 390.4m-27.733334 0a27.733333 27.733333 0 1 0 55.466667 0 27.733333 27.733333 0 1 0-55.466667 0Z"/><path fill="#FFB74D" d="M887.466667 249.6m-27.733334 0a27.733333 27.733333 0 1 0 55.466667 0 27.733333 27.733333 0 1 0-55.466667 0Z"/><path fill="#FFB74D" d="M802.133333 288m-27.733333 0a27.733333 27.733333 0 1 0 55.466667 0 27.733333 27.733333 0 1 0-55.466667 0Z"/><path fill="#F44336" d="M768 458.666667l-187.733333 85.333333-46.933334-6.4c-10.666667-2.133333-19.2-12.8-19.2-23.466667l6.4-55.466666c2.133333-21.333333 14.933333-38.4 34.133334-46.933334l123.733333-55.466666c19.2-8.533333 40.533333 0 49.066667 19.2l40.533333 83.2zM917.333333 247.466667l-136.533333 61.866666c-19.2 8.533333-27.733333 29.866667-19.2 49.066667l38.4 85.333333 115.2-53.333333v-142.933333z"/></svg>