<svg xmlns="http://www.w3.org/2000/svg" data-name="Layer 1" viewBox="0 0 64 64"><circle cx="14" cy="11.5" r="8.5" fill="#e3fcfd"/><path fill="#e3fcfd" d="M5,24a3,3,0,0,0-3,3V40a3,3,0,0,0,3,3H7V53H21V33l13.44173-7.11621A1,1,0,0,0,33.97385,24H5Z"/><polygon fill="#42eaf5" points="51 2 31 2 31 9.809 29 18 35 14 51 14 51 2"/><rect width="60" height="11" y="51" fill="#42eaf5"/><circle cx="44.975" cy="36.5" r="8.5" fill="#e3fcfd"/><path fill="#e3fcfd" d="M38,49H52a3,3,0,0,1,3,3V62a0,0,0,0,1,0,0H35a0,0,0,0,1,0,0V52A3,3,0,0,1,38,49Z"/><path fill="#007da1" d="M24.5 11.5A10.5 10.5 0 1 0 14 22 10.51211 10.51211 0 0 0 24.5 11.5zM14 18a6.5 6.5 0 1 1 6.5-6.5A6.50753 6.50753 0 0 1 14 18zM55.47559 36.5a10.5 10.5 0 1 0-10.5 10.5A10.5118 10.5118 0 0 0 55.47559 36.5zm-10.5 6.5a6.5 6.5 0 1 1 6.5-6.5A6.50753 6.50753 0 0 1 44.97559 43zM27.85254 19.63818a2.00041 2.00041 0 0 0 2.25684.02588L35.60547 16H51a2.0001 2.0001 0 0 0 2-2V2a2.0001 2.0001 0 0 0-2-2H31a2.0001 2.0001 0 0 0-2 2V9.56787l-1.94287 7.95752A1.99991 1.99991 0 0 0 27.85254 19.63818zM33 9.80859V4H49v8H35c-.84363-.08679-2.16064 1.105-2.83984 1.48975C32.16016 13.48975 33 9.96826 33 9.80859z"/><path fill="#007da1" d="M62,50H60a2,2,0,0,0,0,4v6H56V52a5.00588,5.00588,0,0,0-5-5H39a5.00324,5.00324,0,0,0-4.57617,3H9V43a2.0001,2.0001,0,0,0-2-2H5a1.0013,1.0013,0,0,1-1-1V27a1.0013,1.0013,0,0,1,1-1H29.94727l-9.88282,5.23242A2.0003,2.0003,0,0,0,19,33V46a2,2,0,0,0,4,0V34.2041l12.377-6.55273A2.99976,2.99976,0,0,0,33.97363,22H5a5.00588,5.00588,0,0,0-5,5V40a5.00588,5.00588,0,0,0,5,5v5H2a2.0001,2.0001,0,0,0-2,2V62a2.0001,2.0001,0,0,0,2,2H62a2.0001,2.0001,0,0,0,2-2V52A2.0001,2.0001,0,0,0,62,50ZM34,60H4V54H34Zm18,0H38V52a1.001,1.001,0,0,1,1-1H51a1.001,1.001,0,0,1,1,1Z"/><circle cx="9" cy="37" r="2" fill="#42eaf5"/></svg>