<svg xmlns="http://www.w3.org/2000/svg" xmlns:svg="http://www.w3.org/2000/svg" id="svg2" width="768" height="329.147" version="1.1" viewBox="0 0 768 329.147" xml:space="preserve"><metadata id="metadata8"/><g id="g10" transform="matrix(1.3333333,0,0,-1.3333333,0,329.14667)"><g id="g12" transform="scale(0.1)"><path id="path14" style="fill:#fab50d;fill-opacity:1;fill-rule:nonzero;stroke:none" d="m 3640.02,1326.01 c -127.68,34.06 -233.34,68.68 -233.34,147.89 0,50.04 38.99,124.45 146.39,124.45 106.95,0 187.17,-37.06 245.03,-113.33 l 152.54,132.84 c -96.84,150.96 -273.63,173.62 -370.62,173.62 -241.59,0 -410.34,-139.57 -410.34,-339.44 0,-198.79 181.77,-276 360.52,-326.11 151.47,-42.47 211.33,-62.92 211.33,-154.621 0,-72.629 -64.44,-117.719 -168.25,-117.719 -166.02,0 -257.43,110.039 -284.02,147.96 L 3125.09,861.051 c 83.3,-133.121 227.24,-200.582 427.98,-200.582 250.47,0 425.47,144.449 425.47,351.271 0,208.25 -174.78,271.4 -338.52,314.27 z m 848.11,-198.43 h 181.08 c 19.41,0 40.4,-1.55 62.91,-4.61 22.49,-3.07 43.47,-8.72 62.91,-16.87 19.42,-8.21 35.54,-20.22 48.34,-36.07 12.78,-15.86 19.18,-36.6 19.18,-62.14 0,-23.562 -4.86,-43.499 -14.58,-59.851 -9.73,-16.371 -22.25,-29.687 -37.59,-39.898 -15.35,-10.231 -32.49,-17.403 -51.41,-21.493 -18.94,-4.078 -37.59,-6.136 -56,-6.136 h -214.84 z m 0,434.26 h 162.66 c 18.42,0 37.34,-1.8 56.78,-5.38 19.42,-3.6 36.82,-9.48 52.18,-17.66 15.34,-8.19 27.85,-19.69 37.58,-34.51 9.72,-14.85 14.58,-33.51 14.58,-56 0,-21.5 -4.36,-39.91 -13.04,-55.26 -8.7,-15.34 -20.21,-27.61 -34.52,-36.82 -14.35,-9.21 -30.46,-15.86 -48.34,-19.95 -17.91,-4.09 -36.07,-6.14 -54.48,-6.14 h -173.4 z M 4248.76,677.969 h 445 c 48.08,0 96.41,5.101 145,15.34 48.58,10.222 92.31,27.089 131.2,50.64 38.87,23.531 70.6,54.469 95.15,92.84 24.55,38.359 36.82,86.18 36.82,143.473 0,34.758 -5.63,67.518 -16.88,98.208 -11.27,30.69 -27.38,57.54 -48.33,80.56 -20.98,23.02 -46.04,41.93 -75.2,56.78 -29.16,14.81 -61.64,24.79 -97.44,29.91 v 3.08 c 56.26,17.38 101.53,46.27 135.81,86.69 34.26,40.4 51.4,91.3 51.4,152.69 0,59.31 -11.77,106.88 -35.28,142.7 -23.56,35.81 -54.24,63.68 -92.08,83.64 -37.87,19.95 -80.56,33.23 -128.13,39.89 -47.57,6.64 -94.9,9.98 -141.93,9.98 H 4248.76 Z M 2929.38,1059.97 h -198.26 c -23.06,-156.771 -129.11,-235.15 -282.8,-235.15 -202.89,0 -321.24,147.551 -321.24,395.01 v 9.22 c 0,250.52 127.57,399.61 321.24,399.61 149.09,0 241.3,-69.17 278.19,-221.32 h 182.89 v 357.05 h -164.44 v -121.9 c -50.73,95.29 -161.39,149.09 -315.09,149.09 -302.79,0 -517.97,-232.09 -517.97,-561.01 v -12.28 c 0,-338.149 193.67,-557.931 537.95,-557.931 261.29,0 447.26,133.719 479.53,399.611 z m -1294.87,41.99 v 513.19 h 109.64 v 149.24 h -432.48 v -149.24 h 120.3 v -496.44 c 0,-225.358 -79.18,-295.409 -236.02,-295.409 -161.42,0 -225.38,82.23 -225.38,281.719 v 510.13 h 120.3 v 149.24 H 658.398 v -149.24 h 109.637 v -525.37 c 0,-280.19 153.805,-429.421 426.385,-429.421 287.81,0 440.09,156.852 440.09,441.601 z M 5760,0 H 0 V 2468.57 H 5760 V 0"/></g></g></svg>