<svg id="Layer_1" data-name="Layer 1" xmlns="http://www.w3.org/2000/svg" viewBox="0 0 321.84 321.84"><defs><style>.cls-1{fill:#fac610;stroke:#f7941d;}.cls-1,.cls-3,.cls-4{stroke-miterlimit:10;}.cls-2{fill:#e7b821;}.cls-3,.cls-4,.cls-5{fill:none;stroke-width:8px;}.cls-3,.cls-5{stroke:#231f20;}.cls-4{stroke:#d09910;}.cls-5{stroke-linecap:round;stroke-linejoin:round;}</style></defs><title>coin logo</title><circle class="cls-1" cx="160.92" cy="161.76" r="155.18"/><path class="cls-2" d="M320.41,61.55a135,135,0,0,0-68.76,18.73,123.5,123.5,0,0,1,40.69-6.86c68.79,0,124.56,56.18,124.56,125.48S361.13,324.37,292.34,324.37a123.49,123.49,0,0,1-40.69-6.85,135,135,0,0,0,68.76,18.73c75.31,0,136.35-61.5,136.35-137.35S395.72,61.55,320.41,61.55Z" transform="translate(-157.94 -38.24)"/><circle class="cls-3" cx="160.92" cy="160.92" r="156.92"/><circle class="cls-4" cx="160.92" cy="160.92" r="135.04"/><path class="cls-5" d="M257.47,181s-4.94-45.41,26.87-65.32c10.31-8.09,44-13.27,64.9-7.62,24,6.47,50.82,36.7,44.23,66.12s-24.4,44.67-25.08,63.26c-.81,21.85.14,54.95.14,54.85H300V253.47H268.06s-7.3,1.88-7.77-10.12,0-37.88,0-37.88H241.71Z" transform="translate(-157.94 -38.24)"/><path class="cls-5" d="M288.6,139.12s-6.34,12.44-7.6,21.64,7.44,13.22,12.94,13c6.06-.3,20.41-6.41,27.79-4.29s15.74,9.61,18.8,14.79,21.47,10.5,25.41-1.09c4-11.77,8.2-38.57-12.7-47.3C331.82,126.88,308.29,129.94,288.6,139.12Z" transform="translate(-157.94 -38.24)"/><path class="cls-5" d="M287.31,140.53s-8.19,10.82-6.31,20.23c1.82,9.1,7.44,13.22,12.94,13" transform="translate(-157.94 -38.24)"/></svg>