<svg xmlns="http://www.w3.org/2000/svg" xmlns:xlink="http://www.w3.org/1999/xlink" id="svg" width="400" height="385" version="1.1" viewBox="0 0 400 385"><g id="svgg"><path id="path0" fill="#fcfcfc" fill-rule="evenodd" stroke="none" d="M307.500 5.548 C 304.984 5.709,295.567 6.558,291.167 7.021 C 288.688 7.281,286.380 7.849,282.167 9.235 C 275.703 11.360,273.151 11.715,270.303 10.887 C 268.661 10.410,268.222 10.408,265.661 10.872 C 263.604 11.244,260.653 11.378,254.833 11.363 C 230.144 11.301,223.758 12.577,220.442 18.235 C 217.421 23.391,224.683 36.122,233.185 40.572 C 237.214 42.681,238.982 42.999,248.500 43.327 C 257.301 43.630,259.264 43.936,262.256 45.471 C 266.091 47.439,266.305 47.394,254.000 47.200 C 231.280 46.842,229.074 46.316,186.000 30.994 C 151.592 18.755,141.886 15.915,121.500 12.118 C 114.136 10.746,104.222 10.793,91.500 12.260 C 77.533 13.870,75.210 13.948,73.200 12.873 C 69.719 11.012,66.271 12.265,63.621 16.354 C 61.932 18.961,59.609 19.256,51.968 17.837 C 49.511 17.380,46.858 17.005,46.072 17.003 C 45.206 17.001,43.981 16.664,42.957 16.145 C 38.557 13.915,32.880 13.300,24.667 14.162 C 21.642 14.479,17.106 14.915,14.588 15.131 L 10.009 15.522 8.684 16.817 C 5.639 19.790,5.580 28.953,8.541 38.787 C 10.234 44.410,9.913 48.446,7.493 51.964 C 3.739 57.422,7.108 71.944,14.654 82.833 C 15.925 84.667,17.363 86.965,17.851 87.942 C 20.196 92.631,23.728 94.216,32.484 94.505 C 40.796 94.779,44.794 95.699,57.615 100.289 C 65.691 103.179,70.547 104.716,73.047 105.172 C 74.022 105.350,74.463 105.706,75.292 106.986 C 77.113 109.796,80.153 111.788,87.039 114.680 C 89.676 115.788,92.658 117.182,93.667 117.777 C 94.675 118.373,96.025 119.066,96.667 119.317 C 102.054 121.425,111.454 127.077,118.833 132.646 C 122.637 135.516,128.541 138.245,150.583 147.322 C 153.379 148.473,155.667 149.528,155.667 149.665 C 155.667 149.802,156.392 151.021,157.278 152.374 C 162.476 160.307,170.240 166.336,180.430 170.352 C 184.707 172.037,185.667 172.927,185.667 175.209 C 185.667 178.756,182.308 182.331,178.971 182.335 C 168.647 182.349,158.951 193.211,157.901 205.939 C 156.730 220.136,160.951 232.253,168.896 237.504 C 169.961 238.208,171.459 239.209,172.223 239.727 C 179.254 244.496,188.693 244.988,197.174 241.029 C 203.511 238.071,217.069 227.220,221.333 221.694 C 223.504 218.881,225.047 218.218,229.500 218.186 C 233.560 218.157,234.723 218.852,236.838 222.573 C 238.232 225.024,239.553 226.572,245.023 232.165 C 251.867 239.161,253.116 240.834,254.809 245.269 C 255.731 247.682,256.707 249.119,260.422 253.528 C 261.796 255.158,262.493 256.337,262.865 257.655 C 263.151 258.670,263.909 260.475,264.548 261.667 C 266.440 265.193,269.534 271.685,272.345 278.026 C 273.792 281.291,275.976 285.957,277.197 288.394 L 279.418 292.826 279.206 299.996 C 278.594 320.721,278.586 321.639,278.983 324.354 C 279.204 325.866,279.745 328.345,280.184 329.861 L 280.983 332.619 280.278 334.213 C 279.721 335.473,279.512 336.890,279.280 340.987 C 279.118 343.836,278.900 346.954,278.794 347.915 C 278.630 349.415,278.752 349.983,279.653 351.909 C 282.578 358.160,278.631 364.633,271.518 365.250 C 270.408 365.346,268.974 365.689,268.331 366.011 C 267.687 366.334,265.062 367.136,262.497 367.795 C 256.462 369.343,253.862 370.632,252.417 372.790 C 250.763 375.260,250.825 375.333,254.583 375.339 C 259.295 375.346,265.319 375.904,268.625 376.639 C 275.325 378.128,289.829 378.256,294.446 376.866 C 300.205 375.133,303.508 369.486,300.513 366.491 C 297.679 363.657,298.142 356.742,301.266 355.249 C 303.191 354.329,303.468 353.044,302.317 350.370 L 301.597 348.696 302.443 345.431 C 304.180 338.729,305.873 321.439,305.991 309.182 C 306.021 306.116,306.351 303.420,307.828 294.167 C 309.964 280.793,309.218 274.149,304.332 263.016 C 300.721 254.790,300.633 254.395,300.500 245.833 C 300.383 238.350,300.309 237.679,297.955 222.833 C 295.683 208.504,297.013 200.529,303.306 190.744 C 312.258 176.824,322.312 159.126,332.419 139.500 C 340.173 124.442,345.101 116.199,348.038 113.371 C 350.966 110.552,350.516 109.300,345.112 105.222 C 343.497 104.003,342.931 103.332,342.469 102.086 C 341.720 100.067,341.064 99.102,338.271 95.908 C 333.138 90.038,333.390 88.006,339.582 85.341 C 344.161 83.370,345.067 82.299,344.158 79.930 C 343.808 79.018,349.106 76.378,356.782 73.640 C 361.078 72.108,360.348 72.541,368.833 66.490 C 378.829 59.362,383.580 56.918,389.372 55.924 L 391.667 55.531 391.667 54.273 C 391.667 52.364,390.578 51.765,388.111 52.317 C 384.720 53.075,384.628 51.695,387.773 47.251 C 388.584 46.104,389.626 44.417,390.088 43.500 C 390.550 42.583,391.383 40.941,391.939 39.851 C 394.005 35.799,394.355 26.327,392.568 22.800 C 390.099 17.928,385.503 13.561,378.747 9.667 L 376.328 8.273 366.914 7.482 C 346.914 5.802,342.852 5.607,326.000 5.512 C 316.925 5.461,308.600 5.477,307.500 5.548 M70.667 48.823 C 74.776 49.513,78.090 50.447,80.827 51.688 C 82.529 52.460,83.838 52.763,86.598 53.024 C 93.492 53.676,99.360 55.207,110.971 59.384 C 121.497 63.171,125.905 64.612,130.333 65.715 C 132.625 66.285,135.056 67.033,135.735 67.375 C 137.396 68.213,139.857 69.116,143.687 70.291 C 146.267 71.083,147.378 71.647,149.520 73.252 C 150.976 74.343,154.942 77.131,158.333 79.449 L 164.500 83.664 167.612 83.665 C 169.324 83.666,172.604 83.435,174.901 83.152 C 178.332 82.729,179.183 82.714,179.665 83.069 C 179.988 83.306,182.183 84.964,184.543 86.754 C 188.653 89.871,195.951 94.000,197.352 94.000 C 197.692 94.000,198.016 93.650,198.142 93.145 C 198.994 89.750,205.988 91.790,206.005 95.438 C 206.015 97.403,206.232 97.499,210.738 97.515 C 215.396 97.532,217.892 98.132,219.724 99.677 C 221.075 100.815,220.917 101.009,217.833 102.003 C 216.550 102.416,211.833 104.173,207.352 105.905 C 188.116 113.343,183.785 114.177,174.632 112.202 C 162.040 109.484,163.000 109.826,148.500 102.918 C 130.941 94.552,132.124 95.047,127.107 93.973 C 119.572 92.360,115.646 90.769,112.271 87.962 C 109.571 85.716,101.232 83.949,90.250 83.294 C 84.486 82.950,83.725 82.835,82.614 82.134 C 80.541 80.825,78.699 80.546,73.641 80.776 C 70.574 80.916,68.959 80.870,68.815 80.638 C 68.697 80.446,66.408 78.837,63.728 77.061 C 58.885 73.853,55.787 71.178,54.878 69.419 C 53.187 66.152,48.412 63.421,47.877 65.417 C 47.166 68.068,47.841 71.949,49.397 74.156 C 50.728 76.044,50.834 77.924,49.680 79.153 C 47.798 81.156,41.037 81.988,37.000 80.714 L 35.167 80.135 35.223 74.984 C 35.363 62.143,38.820 55.789,47.099 53.155 L 49.500 52.391 49.385 50.543 C 49.279 48.834,49.329 48.682,50.052 48.517 C 52.857 47.879,66.220 48.077,70.667 48.823"/><path id="path1" fill="#040404" fill-rule="evenodd" stroke="none" d="M307.167 5.215 C 304.654 5.375,295.240 6.224,290.833 6.688 C 288.361 6.947,286.044 7.516,281.867 8.888 C 275.358 11.026,273.288 11.325,270.528 10.522 C 268.731 10.000,268.389 10.000,265.385 10.515 C 262.966 10.929,260.222 11.058,254.333 11.035 C 229.979 10.938,223.418 12.255,220.108 17.904 C 216.933 23.320,224.154 36.353,232.852 40.905 C 236.881 43.014,238.649 43.332,248.167 43.660 C 257.001 43.964,258.901 44.263,262.006 45.836 C 264.515 47.108,264.415 47.120,253.417 46.894 C 231.506 46.443,228.986 45.833,186.333 30.661 C 151.928 18.423,142.248 15.590,121.833 11.783 C 114.419 10.401,103.978 10.452,91.000 11.933 C 76.809 13.553,75.517 13.598,73.534 12.539 C 69.828 10.560,65.978 11.868,63.287 16.021 C 61.602 18.622,59.702 18.878,52.301 17.503 C 49.844 17.047,47.191 16.672,46.406 16.670 C 45.539 16.668,44.314 16.331,43.290 15.812 C 38.854 13.564,32.841 12.934,24.333 13.828 C 21.308 14.146,16.773 14.582,14.255 14.797 L 9.676 15.189 8.350 16.483 C 5.283 19.479,5.218 29.149,8.200 39.111 C 9.859 44.653,9.567 48.131,7.150 51.646 C 3.317 57.217,6.729 72.211,14.321 83.167 C 15.591 85.000,17.030 87.299,17.518 88.275 C 19.863 92.966,23.405 94.556,32.167 94.850 C 40.535 95.131,44.462 96.033,57.282 100.622 C 65.358 103.513,70.214 105.050,72.713 105.506 C 73.689 105.684,74.129 106.039,74.959 107.319 C 76.780 110.130,79.820 112.121,86.706 115.014 C 89.343 116.121,92.325 117.515,93.333 118.111 C 94.342 118.706,95.692 119.399,96.333 119.650 C 101.721 121.759,111.121 127.411,118.500 132.979 C 122.303 135.849,128.207 138.578,150.250 147.655 C 153.046 148.807,155.333 149.861,155.333 149.998 C 155.333 150.136,156.058 151.355,156.945 152.707 C 162.142 160.641,169.906 166.669,180.097 170.685 C 184.161 172.287,185.333 173.300,185.333 175.209 C 185.333 178.428,181.815 181.998,178.637 182.002 C 168.243 182.016,158.582 192.914,157.558 205.782 C 156.392 220.439,160.546 232.539,168.563 237.837 C 169.628 238.541,171.125 239.542,171.890 240.060 C 178.957 244.853,188.942 245.361,197.507 241.363 C 203.844 238.405,217.402 227.554,221.667 222.027 C 225.847 216.609,233.172 217.044,236.505 222.907 C 237.899 225.358,239.219 226.905,244.690 232.498 C 251.533 239.494,252.783 241.167,254.476 245.602 C 255.398 248.016,256.374 249.453,260.089 253.862 C 261.462 255.492,262.160 256.670,262.532 257.988 C 262.818 259.003,263.575 260.808,264.215 262.000 C 266.107 265.526,269.200 272.018,272.012 278.360 C 273.459 281.624,275.642 286.289,276.862 288.725 L 279.082 293.154 278.876 299.827 C 278.140 323.702,278.160 324.357,279.790 329.985 C 280.527 332.531,280.527 332.537,279.884 334.013 C 279.401 335.121,279.165 336.784,278.941 340.662 C 278.777 343.506,278.560 346.768,278.459 347.910 C 278.296 349.746,278.395 350.248,279.310 352.243 C 282.064 358.249,278.188 364.309,271.204 364.915 C 270.084 365.012,268.640 365.356,267.997 365.678 C 267.354 366.001,264.729 366.803,262.164 367.461 C 256.129 369.010,253.528 370.298,252.083 372.457 C 250.171 375.313,250.409 375.666,254.250 375.672 C 258.957 375.680,264.984 376.237,268.292 376.971 C 274.464 378.340,288.506 378.614,293.668 377.466 C 300.244 376.003,304.301 369.612,300.847 366.158 C 298.058 363.369,298.507 357.060,301.599 355.582 C 303.521 354.664,303.886 352.846,302.691 350.145 L 302.013 348.611 302.682 346.222 C 304.387 340.128,306.317 320.786,306.339 309.560 C 306.346 306.446,306.643 303.990,308.165 294.500 C 310.339 280.941,309.557 273.827,304.665 262.683 C 301.081 254.517,300.982 254.072,300.840 245.500 C 300.716 238.028,300.645 237.381,298.290 222.500 C 296.064 208.430,297.354 200.851,303.639 191.077 C 312.591 177.157,322.645 159.459,332.752 139.833 C 340.507 124.775,345.434 116.533,348.372 113.704 C 351.485 110.707,350.925 109.021,345.445 104.888 C 343.830 103.670,343.265 102.999,342.802 101.752 C 342.053 99.733,341.398 98.768,338.605 95.574 C 333.623 89.878,333.833 88.292,339.915 85.674 C 343.980 83.925,345.160 82.801,344.866 80.961 C 344.567 79.096,347.382 77.457,356.495 74.192 C 361.522 72.390,360.641 72.903,369.167 66.823 C 379.163 59.695,383.914 57.251,389.705 56.258 L 392.000 55.864 392.000 54.273 C 392.000 52.222,391.058 51.466,388.908 51.792 C 386.194 52.203,386.172 52.200,386.066 51.462 C 386.005 51.036,386.678 49.716,387.764 48.128 C 388.754 46.683,389.945 44.750,390.412 43.833 C 390.879 42.917,391.716 41.275,392.272 40.185 C 394.347 36.115,394.709 26.035,392.908 22.480 C 390.432 17.594,385.844 13.232,379.081 9.334 L 376.661 7.939 367.247 7.149 C 347.119 5.458,343.221 5.272,326.000 5.178 C 316.742 5.128,308.267 5.144,307.167 5.215 M350.000 6.148 C 354.125 6.447,361.736 7.047,366.914 7.482 L 376.328 8.273 378.747 9.667 C 385.503 13.561,390.099 17.928,392.568 22.800 C 394.355 26.327,394.005 35.799,391.939 39.851 C 391.383 40.941,390.550 42.583,390.088 43.500 C 389.626 44.417,388.584 46.104,387.773 47.251 C 384.628 51.695,384.720 53.075,388.111 52.317 C 390.578 51.765,391.667 52.364,391.667 54.273 L 391.667 55.531 389.372 55.924 C 383.580 56.918,378.829 59.362,368.833 66.490 C 360.348 72.541,361.078 72.108,356.782 73.640 C 349.106 76.378,343.808 79.018,344.158 79.930 C 345.067 82.299,344.161 83.370,339.582 85.341 C 333.390 88.006,333.138 90.038,338.271 95.908 C 341.064 99.102,341.720 100.067,342.469 102.086 C 342.931 103.332,343.497 104.003,345.112 105.222 C 350.516 109.300,350.966 110.552,348.038 113.371 C 345.101 116.199,340.173 124.442,332.419 139.500 C 322.312 159.126,312.258 176.824,303.306 190.744 C 297.013 200.529,295.683 208.504,297.955 222.833 C 300.309 237.679,300.383 238.350,300.500 245.833 C 300.633 254.395,300.721 254.790,304.332 263.016 C 309.218 274.149,309.964 280.793,307.828 294.167 C 306.351 303.420,306.021 306.116,305.991 309.182 C 305.873 321.439,304.180 338.729,302.443 345.431 L 301.597 348.696 302.317 350.370 C 303.468 353.044,303.191 354.329,301.266 355.249 C 298.142 356.742,297.679 363.657,300.513 366.491 C 303.508 369.486,300.205 375.133,294.446 376.866 C 289.829 378.256,275.325 378.128,268.625 376.639 C 265.319 375.904,259.295 375.346,254.583 375.339 C 250.825 375.333,250.763 375.260,252.417 372.790 C 253.862 370.632,256.462 369.343,262.497 367.795 C 265.062 367.136,267.687 366.334,268.331 366.011 C 268.974 365.689,270.408 365.346,271.518 365.250 C 278.631 364.633,282.578 358.160,279.653 351.909 C 278.752 349.983,278.630 349.415,278.794 347.915 C 278.900 346.954,279.118 343.836,279.280 340.987 C 279.512 336.890,279.721 335.473,280.278 334.213 L 280.983 332.619 280.184 329.861 C 279.745 328.345,279.204 325.866,278.983 324.354 C 278.586 321.639,278.594 320.721,279.206 299.996 L 279.418 292.826 277.197 288.394 C 275.976 285.957,273.792 281.291,272.345 278.026 C 269.534 271.685,266.440 265.193,264.548 261.667 C 263.909 260.475,263.151 258.670,262.865 257.655 C 262.493 256.337,261.796 255.158,260.422 253.528 C 256.707 249.119,255.731 247.682,254.809 245.269 C 253.116 240.834,251.867 239.161,245.023 232.165 C 239.553 226.572,238.232 225.024,236.838 222.573 C 234.723 218.852,233.560 218.157,229.500 218.186 C 225.047 218.218,223.504 218.881,221.333 221.694 C 217.069 227.220,203.511 238.071,197.174 241.029 C 188.693 244.988,179.254 244.496,172.223 239.727 C 171.459 239.209,169.961 238.208,168.896 237.504 C 160.951 232.253,156.730 220.136,157.901 205.939 C 158.951 193.211,168.647 182.349,178.971 182.335 C 182.308 182.331,185.667 178.756,185.667 175.209 C 185.667 172.927,184.707 172.037,180.430 170.352 C 170.240 166.336,162.476 160.307,157.278 152.374 C 156.392 151.021,155.667 149.802,155.667 149.665 C 155.667 149.528,153.379 148.473,150.583 147.322 C 128.541 138.245,122.637 135.516,118.833 132.646 C 111.454 127.077,102.054 121.425,96.667 119.317 C 96.025 119.066,94.675 118.373,93.667 117.777 C 92.658 117.182,89.676 115.788,87.039 114.680 C 80.153 111.788,77.113 109.796,75.292 106.986 C 74.463 105.706,74.022 105.350,73.047 105.172 C 70.547 104.716,65.691 103.179,57.615 100.289 C 44.794 95.699,40.796 94.779,32.484 94.505 C 23.728 94.216,20.196 92.631,17.851 87.942 C 17.363 86.965,15.925 84.667,14.654 82.833 C 7.108 71.944,3.739 57.422,7.493 51.964 C 9.913 48.446,10.234 44.410,8.541 38.787 C 5.580 28.953,5.639 19.790,8.684 16.817 L 10.009 15.522 14.588 15.131 C 17.106 14.915,21.642 14.479,24.667 14.162 C 32.880 13.300,38.557 13.915,42.957 16.145 C 43.981 16.664,45.206 17.001,46.072 17.003 C 46.858 17.005,49.511 17.380,51.968 17.837 C 59.609 19.256,61.932 18.961,63.621 16.354 C 66.271 12.265,69.719 11.012,73.200 12.873 C 75.210 13.948,77.533 13.870,91.500 12.260 C 104.222 10.793,114.136 10.746,121.500 12.118 C 141.886 15.915,151.592 18.755,186.000 30.994 C 229.074 46.316,231.280 46.842,254.000 47.200 C 266.305 47.394,266.091 47.439,262.256 45.471 C 259.264 43.936,257.301 43.630,248.500 43.327 C 238.982 42.999,237.214 42.681,233.185 40.572 C 224.683 36.122,217.421 23.391,220.442 18.235 C 223.758 12.577,230.144 11.301,254.833 11.363 C 260.653 11.378,263.604 11.244,265.661 10.872 C 268.222 10.408,268.661 10.410,270.303 10.887 C 273.151 11.715,275.703 11.360,282.167 9.235 C 288.137 7.271,288.453 7.217,300.000 6.173 C 308.401 5.413,308.405 5.413,326.000 5.512 C 337.076 5.574,344.965 5.783,350.000 6.148 M52.667 48.208 C 49.239 48.453,49.255 48.443,49.385 50.543 L 49.500 52.391 47.099 53.155 C 38.820 55.789,35.363 62.143,35.223 74.984 L 35.167 80.135 37.000 80.714 C 41.037 81.988,47.798 81.156,49.680 79.153 C 50.834 77.924,50.728 76.044,49.397 74.156 C 47.841 71.949,47.166 68.068,47.877 65.417 C 48.412 63.421,53.187 66.152,54.878 69.419 C 55.787 71.178,58.885 73.853,63.728 77.061 C 66.408 78.837,68.697 80.446,68.815 80.638 C 68.959 80.870,70.574 80.916,73.641 80.776 C 78.699 80.546,80.541 80.825,82.614 82.134 C 83.725 82.835,84.486 82.950,90.250 83.294 C 101.232 83.949,109.571 85.716,112.271 87.962 C 115.646 90.769,119.572 92.360,127.107 93.973 C 132.124 95.047,130.941 94.552,148.500 102.918 C 163.000 109.826,162.040 109.484,174.632 112.202 C 183.785 114.177,188.116 113.343,207.352 105.905 C 211.833 104.173,216.550 102.416,217.833 102.003 C 220.917 101.009,221.075 100.815,219.724 99.677 C 217.892 98.132,215.396 97.532,210.738 97.515 C 206.232 97.499,206.015 97.403,206.005 95.438 C 205.988 91.790,198.994 89.750,198.142 93.145 C 198.016 93.650,197.692 94.000,197.352 94.000 C 195.951 94.000,188.653 89.871,184.543 86.754 C 182.183 84.964,179.988 83.306,179.665 83.069 C 179.183 82.714,178.332 82.729,174.901 83.152 C 172.604 83.435,169.324 83.666,167.612 83.665 L 164.500 83.664 158.333 79.449 C 154.942 77.131,150.976 74.343,149.520 73.252 C 147.378 71.647,146.267 71.083,143.687 70.291 C 139.857 69.116,137.396 68.213,135.735 67.375 C 135.056 67.033,132.625 66.285,130.333 65.715 C 125.905 64.612,121.497 63.171,110.971 59.384 C 99.360 55.207,93.492 53.676,86.598 53.024 C 83.838 52.763,82.529 52.460,80.827 51.688 C 74.722 48.920,62.991 47.470,52.667 48.208 M70.333 49.159 C 74.436 49.844,77.752 50.778,80.494 52.022 C 82.196 52.793,83.505 53.096,86.264 53.357 C 93.159 54.009,99.027 55.540,110.637 59.717 C 121.164 63.504,125.571 64.945,130.000 66.048 C 132.292 66.619,134.722 67.366,135.401 67.708 C 137.063 68.547,139.524 69.449,143.354 70.624 C 145.934 71.416,147.045 71.980,149.187 73.585 C 150.642 74.676,154.608 77.465,158.000 79.783 L 164.167 83.997 167.667 83.995 C 169.592 83.995,172.892 83.778,175.000 83.515 C 177.988 83.142,178.953 83.124,179.376 83.435 C 179.674 83.654,181.849 85.298,184.209 87.088 C 191.579 92.677,197.784 95.401,198.546 93.383 C 199.702 90.319,205.667 92.269,205.667 95.710 C 205.667 97.846,205.881 97.943,210.579 97.921 C 215.064 97.900,217.120 98.337,219.083 99.729 C 220.384 100.651,220.284 100.778,217.583 101.641 C 216.254 102.065,211.500 103.832,207.018 105.568 C 194.478 110.424,189.578 111.911,183.550 112.689 L 180.500 113.083 173.333 111.520 C 162.647 109.189,163.159 109.376,148.833 102.568 C 131.235 94.206,132.448 94.712,127.440 93.639 C 119.905 92.026,115.979 90.436,112.604 87.628 C 109.904 85.383,101.565 83.615,90.583 82.961 C 84.819 82.617,84.058 82.501,82.948 81.800 C 80.896 80.505,79.037 80.220,73.966 80.420 C 71.120 80.533,69.257 80.479,69.134 80.280 C 69.024 80.102,66.741 78.503,64.061 76.728 C 59.219 73.520,56.121 70.845,55.211 69.086 C 53.417 65.617,48.139 62.862,47.543 65.083 C 46.796 67.871,47.500 72.271,49.042 74.459 C 52.294 79.072,44.950 82.786,37.333 80.380 L 35.500 79.801 35.559 74.984 C 35.713 62.478,39.231 56.107,47.432 53.484 L 49.833 52.716 49.732 50.869 C 49.639 49.174,49.694 49.007,50.399 48.847 C 53.169 48.218,65.890 48.417,70.333 49.159"/></g></svg>