<svg xmlns="http://www.w3.org/2000/svg" xmlns:xlink="http://www.w3.org/1999/xlink" id="svg" width="400" height="400" version="1.1" viewBox="0 0 400 400"><g id="svgg"><path id="path0" fill="#f3f3f3" fill-rule="evenodd" stroke="none" d="M342.200 151.567 C 339.167 152.330,335.901 154.783,334.813 157.115 C 334.534 157.712,334.148 158.513,333.953 158.895 C 331.107 164.490,339.343 174.251,345.213 172.241 C 345.536 172.130,346.558 171.845,347.485 171.608 C 353.691 170.021,356.308 160.389,351.896 155.377 C 349.314 152.443,345.177 150.817,342.200 151.567 M56.701 152.651 C 46.828 155.147,41.209 162.950,41.196 174.184 C 41.187 181.008,40.848 181.609,36.883 181.838 C 34.171 181.995,33.600 182.468,33.600 184.560 C 33.600 186.848,34.482 188.000,36.236 188.000 C 38.025 188.000,40.223 188.922,40.741 189.890 C 41.207 190.760,41.337 228.895,40.883 231.285 C 40.481 233.398,38.032 235.867,35.927 236.284 C 33.800 236.704,33.224 237.566,34.137 238.960 L 34.818 240.000 51.309 239.994 C 68.519 239.988,69.618 239.886,69.929 238.271 C 70.155 237.098,69.313 236.523,66.962 236.247 C 59.795 235.405,59.630 234.790,59.612 208.880 C 59.597 186.541,59.277 187.602,65.854 188.218 C 69.339 188.544,70.811 187.537,70.787 184.842 C 70.764 182.174,70.137 181.818,65.204 181.665 C 61.856 181.562,60.719 181.385,60.321 180.905 C 59.626 180.067,59.395 170.013,59.939 164.218 L 60.350 159.835 62.056 158.351 C 66.449 154.530,69.323 156.986,66.819 162.420 C 65.568 165.133,65.413 167.590,66.451 168.232 C 66.650 168.354,67.061 169.051,67.366 169.780 C 69.280 174.362,78.249 174.008,81.224 169.233 C 87.631 158.949,72.434 148.673,56.701 152.651 M210.103 160.981 C 209.175 161.984,208.105 163.299,207.725 163.903 C 207.346 164.506,206.577 165.554,206.018 166.231 C 205.458 166.907,204.460 168.163,203.800 169.022 C 201.367 172.186,196.305 177.429,192.043 181.200 C 188.930 183.954,189.134 187.200,192.420 187.200 C 197.005 187.200,196.792 185.992,196.797 211.954 C 196.799 225.842,196.939 232.196,197.269 233.354 C 199.679 241.819,212.426 244.914,221.381 239.208 C 226.790 235.761,231.677 227.881,229.200 226.600 C 227.143 225.536,227.150 225.533,224.040 229.132 C 221.391 232.198,217.668 232.439,216.219 229.637 C 215.216 227.697,215.292 188.522,216.300 187.757 C 216.778 187.394,218.352 187.221,221.256 187.213 C 226.032 187.198,226.933 186.803,227.338 184.540 C 227.815 181.877,225.959 180.800,220.893 180.800 C 215.141 180.800,215.421 181.317,215.556 170.948 C 215.667 162.455,215.285 159.605,214.037 159.595 C 213.687 159.592,213.038 159.492,212.596 159.373 C 212.003 159.214,211.347 159.637,210.103 160.981 M98.134 179.623 C 96.778 179.799,95.156 180.209,94.529 180.533 C 93.902 180.857,92.357 181.423,91.095 181.790 C 89.833 182.156,88.575 182.675,88.300 182.942 C 88.025 183.209,86.945 183.924,85.900 184.530 C 84.855 185.137,83.997 185.761,83.994 185.917 C 83.990 186.073,83.432 186.830,82.753 187.600 C 77.185 193.914,80.121 203.629,87.957 204.823 C 92.529 205.519,98.000 201.149,98.000 196.800 C 98.000 195.710,96.347 192.028,94.895 189.884 L 93.869 188.368 95.424 186.775 C 98.743 183.376,105.710 183.611,109.178 187.240 C 111.153 189.307,111.574 190.714,111.823 196.077 C 112.120 202.465,111.621 204.044,109.079 204.756 C 108.156 205.015,106.050 205.686,104.400 206.247 C 102.750 206.808,100.823 207.411,100.118 207.587 C 99.413 207.763,97.638 208.468,96.173 209.154 C 94.709 209.839,93.298 210.400,93.040 210.400 C 92.781 210.400,91.856 210.781,90.985 211.247 C 90.113 211.712,88.715 212.441,87.879 212.866 C 76.603 218.596,73.631 234.585,82.977 239.239 C 83.870 239.683,85.320 240.433,86.200 240.905 C 89.590 242.722,98.376 242.216,102.841 239.947 C 104.083 239.316,105.257 238.795,105.449 238.789 C 105.642 238.783,106.866 237.973,108.170 236.989 C 111.016 234.840,110.769 234.859,112.444 236.652 C 117.202 241.745,117.695 241.994,123.040 241.998 C 127.102 242.001,128.990 241.448,132.644 239.187 C 138.393 235.631,138.980 231.575,133.666 232.130 C 129.833 232.531,130.000 233.440,130.000 212.166 C 130.000 193.708,129.888 192.216,128.327 189.938 C 127.927 189.354,127.600 188.680,127.600 188.439 C 127.600 187.695,124.853 184.917,122.879 183.664 C 117.530 180.272,106.714 178.505,98.134 179.623 M179.176 180.101 C 175.983 182.255,173.338 182.352,169.800 180.446 C 168.830 179.924,167.299 179.800,161.800 179.800 L 155.000 179.800 152.000 181.268 C 146.417 184.001,143.829 187.256,141.852 194.035 C 140.179 199.769,142.465 206.826,147.448 211.315 C 148.355 212.132,149.238 212.800,149.411 212.800 C 149.583 212.800,150.370 213.295,151.159 213.900 C 152.634 215.032,159.079 218.394,159.797 218.407 C 160.019 218.411,160.992 218.951,161.960 219.607 C 162.928 220.263,164.017 220.800,164.380 220.800 C 165.391 220.800,169.932 224.270,170.814 225.716 C 172.535 228.538,171.709 232.590,168.942 234.900 L 167.145 236.400 162.960 236.400 C 158.673 236.400,157.818 236.186,154.803 234.356 C 151.774 232.517,149.069 229.499,148.033 226.800 C 146.919 223.898,145.853 221.771,145.087 220.919 L 144.295 220.037 142.748 220.827 L 141.200 221.616 141.200 231.198 L 141.200 240.779 142.380 241.390 C 144.043 242.250,144.594 242.160,145.696 240.851 C 147.600 238.588,148.883 238.490,153.828 240.224 C 158.900 242.003,165.029 242.516,170.199 241.593 C 184.163 239.100,190.393 219.834,180.415 210.000 C 177.735 207.358,169.587 202.400,167.926 202.400 C 167.704 202.400,167.009 202.033,166.379 201.585 C 165.750 201.137,164.642 200.566,163.918 200.316 C 158.655 198.502,155.122 194.011,155.800 189.998 C 156.183 187.736,158.600 185.463,161.367 184.767 C 166.879 183.379,174.336 188.460,176.840 195.309 C 177.240 196.405,177.620 197.337,177.684 197.380 C 177.748 197.424,178.368 197.851,179.062 198.330 C 181.738 200.176,182.068 199.126,182.017 188.926 C 181.968 179.124,181.728 178.379,179.176 180.101 M285.147 179.748 C 283.688 180.010,282.248 180.411,281.947 180.640 C 281.646 180.869,280.590 181.298,279.600 181.593 C 267.661 185.159,263.542 197.821,272.444 203.590 C 276.690 206.341,282.635 204.574,285.088 199.830 C 285.922 198.216,285.534 193.817,284.453 192.635 C 284.033 192.176,283.328 191.041,282.887 190.114 L 282.086 188.427 283.192 186.943 C 286.442 182.585,296.410 184.220,298.604 189.472 C 299.353 191.265,299.495 201.761,298.791 203.280 C 298.294 204.350,296.660 205.191,295.040 205.209 C 294.578 205.215,293.120 205.679,291.800 206.242 C 290.480 206.804,288.730 207.430,287.911 207.632 C 287.092 207.834,285.243 208.539,283.801 209.200 C 282.359 209.860,280.959 210.401,280.690 210.401 C 280.420 210.402,279.570 210.794,278.800 211.272 C 278.030 211.750,276.549 212.558,275.508 213.068 C 271.980 214.795,268.515 218.170,266.838 221.511 C 265.789 223.600,265.539 224.644,265.352 227.711 L 265.127 231.400 266.695 234.393 C 270.420 241.504,282.949 244.695,289.761 240.267 C 290.222 239.967,291.263 239.504,292.073 239.239 C 292.883 238.973,294.212 238.226,295.027 237.579 C 298.019 235.200,300.205 235.198,301.188 237.571 C 303.743 243.739,316.106 243.528,322.928 237.200 C 325.727 234.604,325.196 230.922,322.203 232.173 C 321.028 232.664,320.754 232.643,319.668 231.983 C 317.588 230.718,317.600 230.833,317.600 212.281 C 317.600 192.415,317.520 191.670,315.002 187.971 C 312.478 184.264,307.924 181.642,301.200 180.024 C 298.699 179.423,287.988 179.238,285.147 179.748 M330.020 181.195 C 328.767 181.501,327.600 182.492,327.600 183.249 C 327.600 183.622,329.790 185.200,330.307 185.200 C 330.518 185.200,331.525 186.092,332.545 187.183 L 334.400 189.166 334.400 210.525 L 334.400 231.885 333.027 233.683 C 332.272 234.671,331.057 235.717,330.327 236.006 C 328.159 236.865,327.583 237.526,328.072 238.598 C 328.679 239.931,329.471 240.000,344.221 240.000 L 357.542 240.000 358.349 238.974 C 359.328 237.730,359.118 237.029,357.576 236.390 C 356.934 236.124,355.777 235.207,355.004 234.352 L 353.600 232.798 353.600 207.843 C 353.600 183.876,353.570 182.851,352.836 181.944 L 352.072 181.000 341.736 180.929 C 336.051 180.890,330.779 181.009,330.020 181.195 M299.114 218.448 C 299.249 227.225,299.271 227.114,296.986 229.256 C 288.010 237.669,280.386 224.825,288.821 215.500 C 290.165 214.015,291.495 212.800,291.778 212.800 C 292.061 212.800,292.785 212.412,293.387 211.939 C 298.029 208.287,298.973 209.360,299.114 218.448 M111.425 211.356 C 111.557 211.882,111.605 215.682,111.532 219.800 L 111.400 227.288 109.304 229.214 C 102.091 235.844,94.327 228.984,98.356 219.542 C 100.894 213.593,110.479 207.589,111.425 211.356 M246.835 220.820 C 236.140 225.683,239.646 242.023,251.378 241.991 C 266.390 241.950,266.998 220.566,252.000 220.119 C 249.296 220.038,248.239 220.182,246.835 220.820 M33.496 249.016 C 32.893 249.575,32.388 250.250,32.374 250.516 C 32.164 254.493,32.525 258.606,33.125 259.061 C 34.084 259.791,360.391 259.849,361.120 259.120 C 362.026 258.214,361.752 250.301,360.771 249.054 L 359.942 248.000 197.267 248.000 L 34.592 248.000 33.496 249.016"/><path id="path1" fill="#1b1b1b" fill-rule="evenodd" stroke="none" d="M0.000 200.000 L 0.000 400.000 200.000 400.000 L 400.000 400.000 400.000 200.000 L 400.000 0.000 200.000 0.000 L 0.000 0.000 0.000 200.000 M348.449 152.629 C 353.141 154.995,355.132 160.109,353.562 165.761 C 352.967 167.904,349.709 171.039,347.485 171.608 C 346.558 171.845,345.536 172.130,345.213 172.241 C 339.343 174.251,331.107 164.490,333.953 158.895 C 334.148 158.513,334.534 157.712,334.813 157.115 C 337.090 152.235,343.491 150.129,348.449 152.629 M70.484 152.657 C 80.491 155.228,85.313 162.669,81.224 169.233 C 78.249 174.008,69.280 174.362,67.366 169.780 C 67.061 169.051,66.650 168.354,66.451 168.232 C 65.413 167.590,65.568 165.133,66.819 162.420 C 69.323 156.986,66.449 154.530,62.056 158.351 L 60.350 159.835 59.939 164.218 C 59.395 170.013,59.626 180.067,60.321 180.905 C 60.719 181.385,61.856 181.562,65.204 181.665 C 70.137 181.818,70.764 182.174,70.787 184.842 C 70.811 187.537,69.339 188.544,65.854 188.218 C 59.277 187.602,59.597 186.541,59.612 208.880 C 59.630 234.790,59.795 235.405,66.962 236.247 C 69.313 236.523,70.155 237.098,69.929 238.271 C 69.618 239.886,68.519 239.988,51.309 239.994 L 34.818 240.000 34.137 238.960 C 33.224 237.566,33.800 236.704,35.927 236.284 C 38.032 235.867,40.481 233.398,40.883 231.285 C 41.337 228.895,41.207 190.760,40.741 189.890 C 40.223 188.922,38.025 188.000,36.236 188.000 C 34.482 188.000,33.600 186.848,33.600 184.560 C 33.600 182.468,34.171 181.995,36.883 181.838 C 40.848 181.609,41.187 181.008,41.196 174.184 C 41.215 157.962,54.144 148.460,70.484 152.657 M214.037 159.595 C 215.285 159.605,215.667 162.455,215.556 170.948 C 215.421 181.317,215.141 180.800,220.893 180.800 C 225.959 180.800,227.815 181.877,227.338 184.540 C 226.933 186.803,226.032 187.198,221.256 187.213 C 218.352 187.221,216.778 187.394,216.300 187.757 C 215.292 188.522,215.216 227.697,216.219 229.637 C 217.668 232.439,221.391 232.198,224.040 229.132 C 227.150 225.533,227.143 225.536,229.200 226.600 C 231.100 227.582,228.942 232.250,224.581 236.589 C 215.895 245.232,200.119 243.364,197.269 233.354 C 196.939 232.196,196.799 225.842,196.797 211.954 C 196.792 185.992,197.005 187.200,192.420 187.200 C 189.134 187.200,188.930 183.954,192.043 181.200 C 196.305 177.429,201.367 172.186,203.800 169.022 C 204.460 168.163,205.458 166.907,206.018 166.231 C 206.577 165.554,207.346 164.506,207.725 163.903 C 209.231 161.507,211.766 159.150,212.596 159.373 C 213.038 159.492,213.687 159.592,214.037 159.595 M108.200 179.573 C 117.229 180.147,127.600 184.887,127.600 188.439 C 127.600 188.680,127.927 189.354,128.327 189.938 C 129.888 192.216,130.000 193.708,130.000 212.166 C 130.000 233.440,129.833 232.531,133.666 232.130 C 138.980 231.575,138.393 235.631,132.644 239.187 C 128.990 241.448,127.102 242.001,123.040 241.998 C 117.695 241.994,117.202 241.745,112.444 236.652 C 110.769 234.859,111.016 234.840,108.170 236.989 C 106.866 237.973,105.642 238.783,105.449 238.789 C 105.257 238.795,104.083 239.316,102.841 239.947 C 98.376 242.216,89.590 242.722,86.200 240.905 C 85.320 240.433,83.870 239.683,82.977 239.239 C 73.631 234.585,76.603 218.596,87.879 212.866 C 88.715 212.441,90.113 211.712,90.985 211.247 C 91.856 210.781,92.781 210.400,93.040 210.400 C 93.298 210.400,94.709 209.839,96.173 209.154 C 97.638 208.468,99.413 207.763,100.118 207.587 C 100.823 207.411,102.750 206.808,104.400 206.247 C 106.050 205.686,108.156 205.015,109.079 204.756 C 113.087 203.633,113.156 191.402,109.178 187.240 C 105.710 183.611,98.743 183.376,95.424 186.775 L 93.869 188.368 94.895 189.884 C 98.857 195.735,98.655 200.178,94.296 203.106 C 84.545 209.656,74.821 196.595,82.753 187.600 C 83.432 186.830,83.990 186.073,83.994 185.917 C 83.997 185.761,84.855 185.137,85.900 184.530 C 86.945 183.924,88.025 183.209,88.300 182.942 C 88.575 182.675,89.833 182.156,91.095 181.790 C 92.357 181.423,93.902 180.857,94.529 180.533 C 96.757 179.381,100.761 179.100,108.200 179.573 M182.017 188.926 C 182.068 199.126,181.738 200.176,179.062 198.330 C 178.368 197.851,177.748 197.424,177.684 197.380 C 177.620 197.337,177.240 196.405,176.840 195.309 C 174.336 188.460,166.879 183.379,161.367 184.767 C 158.600 185.463,156.183 187.736,155.800 189.998 C 155.122 194.011,158.655 198.502,163.918 200.316 C 164.642 200.566,165.750 201.137,166.379 201.585 C 167.009 202.033,167.704 202.400,167.926 202.400 C 169.587 202.400,177.735 207.358,180.415 210.000 C 190.393 219.834,184.163 239.100,170.199 241.593 C 165.029 242.516,158.900 242.003,153.828 240.224 C 148.883 238.490,147.600 238.588,145.696 240.851 C 144.594 242.160,144.043 242.250,142.380 241.390 L 141.200 240.779 141.200 231.198 L 141.200 221.616 142.748 220.827 L 144.295 220.037 145.087 220.919 C 145.853 221.771,146.919 223.898,148.033 226.800 C 149.069 229.499,151.774 232.517,154.803 234.356 C 157.818 236.186,158.673 236.400,162.960 236.400 L 167.145 236.400 168.942 234.900 C 171.709 232.590,172.535 228.538,170.814 225.716 C 169.932 224.270,165.391 220.800,164.380 220.800 C 164.017 220.800,162.928 220.263,161.960 219.607 C 160.992 218.951,160.019 218.411,159.797 218.407 C 159.079 218.394,152.634 215.032,151.159 213.900 C 150.370 213.295,149.583 212.800,149.411 212.800 C 149.238 212.800,148.355 212.132,147.448 211.315 C 142.465 206.826,140.179 199.769,141.852 194.035 C 143.829 187.256,146.417 184.001,152.000 181.268 L 155.000 179.800 161.800 179.800 C 167.299 179.800,168.830 179.924,169.800 180.446 C 173.338 182.352,175.983 182.255,179.176 180.101 C 181.728 178.379,181.968 179.124,182.017 188.926 M301.200 180.024 C 307.924 181.642,312.478 184.264,315.002 187.971 C 317.520 191.670,317.600 192.415,317.600 212.281 C 317.600 230.833,317.588 230.718,319.668 231.983 C 320.754 232.643,321.028 232.664,322.203 232.173 C 325.196 230.922,325.727 234.604,322.928 237.200 C 316.106 243.528,303.743 243.739,301.188 237.571 C 300.205 235.198,298.019 235.200,295.027 237.579 C 294.212 238.226,292.883 238.973,292.073 239.239 C 291.263 239.504,290.222 239.967,289.761 240.267 C 282.949 244.695,270.420 241.504,266.695 234.393 L 265.127 231.400 265.352 227.711 C 265.539 224.644,265.789 223.600,266.838 221.511 C 268.515 218.170,271.980 214.795,275.508 213.068 C 276.549 212.558,278.030 211.750,278.800 211.272 C 279.570 210.794,280.420 210.402,280.690 210.401 C 280.959 210.401,282.359 209.860,283.801 209.200 C 285.243 208.539,287.092 207.834,287.911 207.632 C 288.730 207.430,290.480 206.804,291.800 206.242 C 293.120 205.679,294.578 205.215,295.040 205.209 C 296.660 205.191,298.294 204.350,298.791 203.280 C 299.495 201.761,299.353 191.265,298.604 189.472 C 296.410 184.220,286.442 182.585,283.192 186.943 L 282.086 188.427 282.887 190.114 C 283.328 191.041,284.033 192.176,284.453 192.635 C 285.534 193.817,285.922 198.216,285.088 199.830 C 282.635 204.574,276.690 206.341,272.444 203.590 C 263.542 197.821,267.661 185.159,279.600 181.593 C 280.590 181.298,281.646 180.869,281.947 180.640 C 283.595 179.387,296.797 178.965,301.200 180.024 M352.836 181.944 C 353.570 182.851,353.600 183.876,353.600 207.843 L 353.600 232.798 355.004 234.352 C 355.777 235.207,356.934 236.124,357.576 236.390 C 359.118 237.029,359.328 237.730,358.349 238.974 L 357.542 240.000 344.221 240.000 C 329.471 240.000,328.679 239.931,328.072 238.598 C 327.583 237.526,328.159 236.865,330.327 236.006 C 331.057 235.717,332.272 234.671,333.027 233.683 L 334.400 231.885 334.400 210.525 L 334.400 189.166 332.545 187.183 C 331.525 186.092,330.518 185.200,330.307 185.200 C 329.790 185.200,327.600 183.622,327.600 183.249 C 327.600 181.201,329.763 180.846,341.736 180.929 L 352.072 181.000 352.836 181.944 M295.941 210.567 C 295.138 210.848,293.989 211.465,293.387 211.939 C 292.785 212.412,292.061 212.800,291.778 212.800 C 291.495 212.800,290.165 214.015,288.821 215.500 C 280.386 224.825,288.010 237.669,296.986 229.256 C 299.271 227.114,299.249 227.225,299.114 218.448 C 298.983 209.975,298.816 209.562,295.941 210.567 M105.180 212.055 C 101.574 214.368,99.674 216.452,98.356 219.542 C 94.327 228.984,102.091 235.844,109.304 229.214 L 111.400 227.288 111.532 219.800 C 111.722 209.099,111.055 208.286,105.180 212.055 M256.974 220.991 C 263.297 224.086,264.875 233.276,259.964 238.399 C 250.989 247.759,236.567 238.196,241.409 226.095 C 243.451 220.991,251.550 218.335,256.974 220.991 M360.771 249.054 C 361.752 250.301,362.026 258.214,361.120 259.120 C 360.391 259.849,34.084 259.791,33.125 259.061 C 32.525 258.606,32.164 254.493,32.374 250.516 C 32.388 250.250,32.893 249.575,33.496 249.016 L 34.592 248.000 197.267 248.000 L 359.942 248.000 360.771 249.054"/></g></svg>