<?xml version="1.0" encoding="utf-8"?>
<!-- Generator: Adobe Illustrator 18.1.0, SVG Export Plug-In . SVG Version: 6.00 Build 0)  -->
<svg version="1.1" id="Layer_1" xmlns="http://www.w3.org/2000/svg" xmlns:xlink="http://www.w3.org/1999/xlink" x="0px" y="0px"
	 viewBox="-362.4 459.1 500 500" enable-background="new -362.4 459.1 500 500" xml:space="preserve">
<radialGradient id="SVGID_1_" cx="-1002.9117" cy="1088.6686" r="0.6371" gradientTransform="matrix(545.6736 0 0 -528.3113 547071.625 575749.0625)" gradientUnits="userSpaceOnUse">
	<stop  offset="0" style="stop-color:#34364E;stop-opacity:0.98"/>
	<stop  offset="1" style="stop-color:#0C0824"/>
</radialGradient>
<path fill="url(#SVGID_1_)" d="M-341.6,493.3h457.5v445h-457.5V493.3z"/>
<path fill="#31C5F0" d="M-341.6,493.3h457.5v445h-457.5V493.3z M-362.4,959.1h499V472.5h-499V959.1z M-25.9,672.2
	c-16.4,0-22,8.3-22,15.2c0,7.5,3.7,12.7,25.8,24.1c32.6,15.8,42.8,31,42.8,53.2c0,33.3-25.4,51.2-59.7,51.2
	c-18.1,0-33.7-3.7-42.6-8.9c-1.5-0.6-1.7-1.7-1.7-3.3V773c0-2.1,1-2.7,2.5-1.7c13.1,8.5,28.1,12.3,41.8,12.3
	c16.4,0,23.3-6.9,23.3-16.2c0-7.5-4.8-14.1-25.8-25C-71,728.3-83.3,714-83.3,690c0-26.8,21-49.1,57.4-49.1c17.9,0,30.4,2.7,37.2,5.8
	c1.7,1,2.1,2.7,2.1,4.2v28.5c0,1.7-1,2.7-3.1,2.1C1.1,675.7-12.4,672.2-25.9,672.2L-25.9,672.2z M-204.7,696.9
	c4.8,0.4,8.5,0.4,16.8,0.4c24.3,0,47.2-8.5,47.2-41.6c0-26.4-16.4-39.7-44.1-39.7c-8.3,0-16.2,0.4-20,0.6L-204.7,696.9L-204.7,696.9
	z M-241.8,586.5c0-1.5,2.9-2.5,4.6-2.5c13.3-0.6,33.1-1,53.6-1c57.6,0,80.1,31.6,80.1,71.9c0,52.8-38.3,75.5-85.3,75.5
	c-7.9,0-10.6-0.4-16.2-0.4v79.8c0,1.7-0.6,2.5-2.5,2.5h-31.8c-1.7,0-2.5-0.6-2.5-2.5L-241.8,586.5L-241.8,586.5z"/>
</svg>
