<svg xmlns="http://www.w3.org/2000/svg" viewBox="0 0 600 400"  xmlns:v="https://vecta.io/nano"><path d="M0 0h600v400H0z" fill="#259463"/><path d="M249.25 117h101.18v119.41H249.25z"/><g fill="#259463"><path d="M309 75.58c-15.07 0-27.29 11.27-27.29 25.16v1.13a6 6 0 0 0 5.87 6.09 5.87 5.87 0 0 0 5.34-3.58q.21-1.25.3-2.52v-.61a3 3 0 0 1 0-.9v-.53c0-8.5 7.26-15.38 16.23-15.38s16.23 6.88 16.23 15.38c-.11 10.77-16.32 18.68-16.32 18.69-.68.84-.43.39-1.34 1.45-2.41 2.81-3.91 6.77-5.27 11.69a26.82 26.82 0 0 0-.58 5.17c0 3.72.64 4.11.64 4.11a4.72 4.72 0 0 0 4.6 2.74 6.36 6.36 0 0 0 6.29-4.27c.7-2.64-.87-10.93 9-16.89l.09-.05c8.07-4.37 13.5-12.46 13.5-21.72C336.26 86.85 324 75.58 309 75.58z" stroke="#231f20" stroke-miterlimit="10" stroke-width="3"/><circle cx="307.64" cy="153.51" r="8.75" transform="matrix(.707107 -.707107 .707107 .707107 -18.44 262.5)"/><path d="M298.67 239.41c-4.94 0-7-5.38-7.24-6l-.17-.49v-20.87l-8.94-8.86-3.32 5.65c-.84 2.95-3.43 7.5-8.46 7.9h-23.75a6.34 6.34 0 0 1-4.77-2.07c-2-2.19-2-5.23-1.91-6.84.34-4.1 4.8-6.25 5.69-6.64l.6-.26 19.37.39c2.06-3.36 6-10 7.05-13.26s4.19-8.53 6.94-13.24l1.47-2.52h-8l-4.46 9.57a4.34 4.34 0 0 1-4.29 2.42 12.52 12.52 0 0 1-4-.77 4.46 4.46 0 0 1-2.94-3.21c-1.51-5.77 7.06-18 7.15-18.13a6.07 6.07 0 0 1 1.45-1.19l.69-.4 27.67-.19c1.36 0 4.92.41 8.68 4.16s2.57 9 .24 13.14h9.24l.41.12a6.24 6.24 0 0 1 4.63 6.18c-.19 4.45-2.93 6-5.42 6h-16.2a40.74 40.74 0 0 1-1.38 2.31c3.75 4.23 10.56 12.62 10.9 13l.63.77v1c0 .94.9 23.06.9 25.52 0 3.95-3.24 6.62-8.27 6.79z"/></g><path d="M298.69 240.91h0c-6 0-8.39-6.27-8.65-7l-.26-.74v-20.49l-7.12-7.06-2.21 3.82c-1.16 3.83-4.37 8.37-9.73 8.79h-23.87a7.86 7.86 0 0 1-5.89-2.57c-2.35-2.61-2.44-6.11-2.28-8 .41-5 5.55-7.44 6.58-7.89l.9-.39 18.84.38c2.54-4.19 5.59-9.63 6.46-12.23 1.11-3.34 4.27-8.75 7.06-13.52l.16-.26h-4.47l-4.06 8.7a5.81 5.81 0 0 1-5.65 3.29 14.23 14.23 0 0 1-4.42-.84 6 6 0 0 1-3.93-4.26c-1.72-6.62 7.41-19.42 7.51-19.52a7.5 7.5 0 0 1 1.8-1.48l1-.6 28.08-.19c1.55 0 5.59.45 9.74 4.6 3.19 3.19 3.73 7.64 1.59 12.7h7l.62.18a7.73 7.73 0 0 1 5.71 7.67c-.24 5.51-3.88 7.46-6.92 7.46H297l-.39.65c3.89 4.48 9.93 11.92 10.2 12.25l.95 1.16.07 1.8.88 25.28c0 4.76-3.9 8.09-9.72 8.29zm-5.93-8.24l.08.24c.19.51 1.91 5 5.82 5h.2c4.19-.14 6.8-2.17 6.8-5.29 0-2.14-.67-19.8-.88-25.16v-.8l-.32-.39c-.07-.08-7.09-8.73-10.85-13l-.75-.85.61-1c.46-.73.91-1.47 1.33-2.23l.42-.77h17.09c1.12 0 3.74-.45 3.92-4.59a4.73 4.73 0 0 0-3.5-4.67l-.21-.06h-11.61l1.25-2.23c1.86-3.33 3.36-8 0-11.35s-6.45-3.72-7.62-3.72h-.32l-26.94.2-.35.2a4.47 4.47 0 0 0-1 .85c-2.17 3-7.94 12.67-6.86 16.79a3 3 0 0 0 2 2.17 11.41 11.41 0 0 0 3.48.69c2 0 2.71-1.05 2.9-1.51l4.9-10.48h11.59l-1.3 2.25-1.48 2.53c-2.71 4.64-5.79 9.91-6.81 12.95-1.28 3.85-6.22 12-7.19 13.58l-.45.73-19.9-.4-.3.13c-.46.2-4.52 2.06-4.79 5.39-.12 1.37-.07 3.94 1.52 5.7a4.88 4.88 0 0 0 3.69 1.58h23.6c5.16-.4 7-6.15 7.13-6.81l.15-.34 4.26-7.33 10.76 10.67z" fill="#231f20"/></svg>