<svg id="svg" version="1.1" xmlns="http://www.w3.org/2000/svg" xmlns:xlink="http://www.w3.org/1999/xlink" width="400" height="400" viewBox="0, 0, 400,400"><g id="svgg"><path id="path0" d="M0.000 200.000 L 0.000 400.000 200.000 400.000 L 400.000 400.000 400.000 200.000 L 400.000 0.000 200.000 0.000 L 0.000 0.000 0.000 200.000 M386.000 200.000 L 386.000 386.000 200.000 386.000 L 14.000 386.000 14.000 200.000 L 14.000 14.000 200.000 14.000 L 386.000 14.000 386.000 200.000 M92.170 89.495 C 92.312 89.883,112.254 139.925,136.484 200.700 L 180.540 311.200 195.972 311.200 L 211.404 311.200 256.102 200.276 C 280.686 139.269,300.800 89.229,300.800 89.076 C 300.800 88.924,293.915 88.802,285.500 88.804 L 270.200 88.807 243.217 159.304 C 228.376 198.077,213.655 236.550,210.504 244.800 C 204.861 259.571,200.158 272.970,197.446 282.000 C 196.686 284.530,195.971 286.330,195.857 286.000 C 195.744 285.670,194.897 282.880,193.975 279.800 C 190.516 268.236,184.401 251.243,154.893 171.200 L 124.589 89.000 108.250 88.895 C 92.793 88.797,91.925 88.829,92.170 89.495 " stroke="none" fill="#1393cb" fill-rule="evenodd"></path><path id="path1" d="M14.000 200.000 L 14.000 386.000 200.000 386.000 L 386.000 386.000 386.000 200.000 L 386.000 14.000 200.000 14.000 L 14.000 14.000 14.000 200.000 M124.991 89.500 C 126.837 94.175,187.440 259.120,189.169 264.176 C 190.469 267.977,192.458 274.127,193.588 277.843 C 194.719 281.559,195.737 284.870,195.851 285.200 C 195.966 285.530,197.183 282.200,198.556 277.800 C 203.005 263.547,199.727 272.277,246.546 150.000 L 269.903 89.000 285.552 88.895 C 294.158 88.838,301.199 88.838,301.197 88.895 C 301.196 88.953,281.064 138.950,256.461 200.000 L 211.726 311.000 195.972 311.000 L 180.217 311.000 136.330 201.000 C 112.192 140.500,92.263 90.505,92.042 89.900 L 91.642 88.800 108.178 88.800 C 123.555 88.800,124.734 88.849,124.991 89.500 " stroke="none" fill="#040404" fill-rule="evenodd"></path><path id="path2" d="" stroke="none" fill="#04364f" fill-rule="evenodd"></path><path id="path3" d="" stroke="none" fill="#044c6c" fill-rule="evenodd"></path><path id="path4" d="" stroke="none" fill="#042434" fill-rule="evenodd"></path></g></svg>